<svg width="9" height="6" viewBox="0 0 9 6" fill="none" xmlns="http://www.w3.org/2000/svg">
<path d="M7.91366 0.753953C7.79883 0.637517 7.61231 0.637517 7.49747 0.753953L4.75247 3.53993C3.97118 4.33288 2.6928 4.33531 1.90851 3.54534L1.50231 3.1362C1.38748 3.01976 1.20096 3.01976 1.08612 3.1362C0.971292 3.25263 0.971292 3.44113 1.08612 3.55727L3.12599 5.61166C3.23966 5.72661 3.42879 5.72661 3.54246 5.61166L7.91364 1.17502C8.02878 1.05888 8.02878 0.870093 7.91366 0.753953C8.02878 0.870093 7.79883 0.637517 7.91366 0.753953Z" fill="white"/>
<path d="M7.91366 0.753953C7.79883 0.637517 7.61231 0.637517 7.49747 0.753953L4.75247 3.53993C3.97118 4.33288 2.6928 4.33531 1.90851 3.54534L1.50231 3.1362C1.38748 3.01976 1.20096 3.01976 1.08612 3.1362C0.971292 3.25263 0.971292 3.44113 1.08612 3.55727L3.12599 5.61166C3.23966 5.72661 3.42879 5.72661 3.54246 5.61166L7.91364 1.17502C8.02878 1.05888 8.02878 0.870093 7.91366 0.753953ZM7.91366 0.753953C7.79883 0.637517 8.02878 0.870093 7.91366 0.753953Z" stroke="white" stroke-width="0.5"/>
</svg>
