<svg width="24" height="24" viewBox="0 0 24 24" fill="none" xmlns="http://www.w3.org/2000/svg">
<path d="M13.8323 12.0001L21.6199 4.21215C22.1267 3.70557 22.1267 2.88651 21.6199 2.37993C21.1133 1.87336 20.2943 1.87336 19.7877 2.37993L11.9999 10.1679L4.21228 2.37993C3.70548 1.87336 2.88667 1.87336 2.3801 2.37993C1.8733 2.88651 1.8733 3.70557 2.3801 4.21215L10.1677 12.0001L2.3801 19.7881C1.8733 20.2947 1.8733 21.1138 2.3801 21.6204C2.63256 21.8731 2.96449 22 3.29619 22C3.62789 22 3.95959 21.8731 4.21228 21.6204L11.9999 13.8324L19.7877 21.6204C20.0404 21.8731 20.3721 22 20.7038 22C21.0355 22 21.3672 21.8731 21.6199 21.6204C22.1267 21.1138 22.1267 20.2947 21.6199 19.7881L13.8323 12.0001Z" fill="#069255"/>
</svg>
